<svg width="105" height="70" viewBox="0 0 105 70" fill="none" xmlns="http://www.w3.org/2000/svg">
<path d="M40.6835 8.89559C40.9525 10.1548 43.3253 13.3881 44.4781 14.8474L43.8056 8.89559C45.3043 6.10168 44.0778 3.37007 43.2773 2.3535C41.6634 0.110505 38.8903 -0.122321 37.7055 0.0416413C34.324 0.199045 31.8776 2.73062 31.077 3.97673C29.2326 7.00674 29.3158 10.4532 29.588 11.7977C30.0107 16.1263 32.7101 20.7828 34.007 22.57C35.2366 24.5769 38.394 27.6036 39.8189 28.8661C41.9324 30.755 43.3573 32.834 43.8056 33.6374C44.1899 35.9591 42.7169 35.2279 41.9324 34.572L36.8409 31.0304C33.2289 28.3939 29.3479 26.915 27.8589 26.5051C24.5542 25.2459 20.1096 25.3246 18.3004 25.5213C14.6499 26.0329 12.5845 26.751 12.0081 27.0462C10.6632 27.4397 8.59782 27.4725 7.73323 27.4397C4.92813 27.4397 1.40895 25.6033 0 24.6851C3.07408 34.7983 11.1435 42.4422 14.794 45H47.9845C51.1738 44.5671 53.0599 42.3602 53.6043 41.3109C54.6418 37.6119 53.3961 34.654 52.6436 33.6374C51.9904 32.0634 48.5929 28.817 46.9758 27.3905C46.1304 26.7609 43.0691 23.5538 41.6442 22.0289C40.1071 20.2975 38.378 17.438 37.7055 16.2247C36.0916 14.0997 35.7202 11.3714 35.7362 10.2729C35.5056 8.38402 36.7609 7.58389 37.4173 7.41993C39.3771 6.75097 40.4114 8.12497 40.6835 8.89559Z" fill="#B2DAF8"/>
<path d="M68.8672 49.3799C68.8672 49.8682 68.7354 50.4346 68.4717 51.0791C68.2178 51.7236 67.8809 52.4023 67.4609 53.1152C67.041 53.8184 66.5674 54.5312 66.04 55.2539C65.5127 55.9766 64.9854 56.6602 64.458 57.3047C63.9307 57.9492 63.4229 58.5303 62.9346 59.0479C62.4561 59.5654 62.0508 59.9756 61.7188 60.2783C61.6797 60.3174 61.6357 60.3369 61.5869 60.3369C61.46 60.3369 61.377 60.2734 61.3379 60.1465L61.2939 60.1025C61.1572 59.7412 61.0645 59.3799 61.0156 59.0186C60.9766 58.6572 60.957 58.2861 60.957 57.9053C60.957 57.3682 60.9668 56.8359 60.9863 56.3086C61.0156 55.7715 61.0303 55.2295 61.0303 54.6826C61.0303 54.3408 61.0205 54.0039 61.001 53.6719C60.9814 53.3398 60.9473 53.0029 60.8984 52.6611C60.5176 53.3545 60.1221 54.0381 59.7119 54.7119C59.3115 55.376 58.8916 56.04 58.4521 56.7041C58.0518 57.3096 57.6367 57.915 57.207 58.5205C56.7871 59.126 56.2939 59.6631 55.7275 60.1318C55.7275 60.1904 55.6982 60.2393 55.6396 60.2783C55.5908 60.3174 55.542 60.3369 55.4932 60.3369C55.3662 60.3369 55.2881 60.2832 55.2588 60.1758C55.2197 60.0098 55.2002 59.8193 55.2002 59.6045C55.2002 59.3799 55.2002 59.1846 55.2002 59.0186C55.2002 58.3545 55.2441 57.7002 55.332 57.0557C55.4297 56.4014 55.5176 55.7471 55.5957 55.0928C55.6738 54.3994 55.7422 53.7109 55.8008 53.0273C55.8691 52.3438 55.9033 51.6504 55.9033 50.9473C55.9033 50.5371 55.8887 50.127 55.8594 49.7168C55.5273 50 55.166 50.2295 54.7754 50.4053C54.3945 50.5713 54.0186 50.7666 53.6475 50.9912C53.2764 51.2158 52.9053 51.4844 52.5342 51.7969C52.1729 52.0996 51.9043 52.4561 51.7285 52.8662C51.6797 52.9639 51.6455 53.0566 51.626 53.1445C51.6064 53.2324 51.582 53.3301 51.5527 53.4375C51.5332 53.5254 51.4697 53.5693 51.3623 53.5693C51.2842 53.5693 51.2256 53.5449 51.1865 53.4961C51.1475 53.4473 51.1279 53.3887 51.1279 53.3203C51.1279 52.959 51.2061 52.6172 51.3623 52.2949C51.5186 51.9727 51.7236 51.6748 51.9775 51.4014C52.2412 51.1182 52.5391 50.8594 52.8711 50.625C53.2031 50.3809 53.5449 50.1611 53.8965 49.9658C54.248 49.7607 54.5947 49.5801 54.9365 49.4238C55.2881 49.2676 55.6055 49.1309 55.8887 49.0137C55.9473 48.9844 56.001 48.9697 56.0498 48.9697C56.1182 48.9697 56.1719 48.999 56.2109 49.0576C56.2598 49.1162 56.2842 49.1748 56.2842 49.2334C56.2842 49.2725 56.2695 49.3066 56.2402 49.3359C56.3574 49.7852 56.4307 50.2393 56.46 50.6982C56.499 51.1572 56.5186 51.6211 56.5186 52.0898C56.5186 52.6074 56.499 53.125 56.46 53.6426C56.4307 54.1504 56.3867 54.6631 56.3281 55.1807C56.2598 55.8057 56.1963 56.4307 56.1377 57.0557C56.0791 57.6807 56.0059 58.3105 55.918 58.9453C56.2305 58.4863 56.5479 58.042 56.8701 57.6123C57.2021 57.1826 57.5244 56.7383 57.8369 56.2793C58.1787 55.7812 58.5156 55.2881 58.8477 54.7998C59.1797 54.3018 59.5166 53.8037 59.8584 53.3057C60.0146 53.0713 60.1709 52.832 60.3271 52.5879C60.4834 52.3438 60.6445 52.1094 60.8105 51.8848C60.8496 51.8457 60.8984 51.8262 60.957 51.8262C61.0156 51.8262 61.0693 51.8506 61.1182 51.8994C61.167 51.9385 61.2012 51.9824 61.2207 52.0312C61.3574 52.3828 61.46 52.7539 61.5283 53.1445C61.6064 53.5254 61.6602 53.916 61.6895 54.3164C61.7188 54.707 61.7334 55.1025 61.7334 55.5029C61.7432 55.8936 61.748 56.2744 61.748 56.6455C61.748 57.1143 61.7529 57.5781 61.7627 58.0371C61.7822 58.4863 61.7822 58.9453 61.7627 59.4141C62.417 58.5059 63.1055 57.627 63.8281 56.7773C64.5605 55.9277 65.2539 55.0439 65.9082 54.126C66.1133 53.833 66.3525 53.4814 66.626 53.0713C66.8994 52.6611 67.1533 52.2363 67.3877 51.7969C67.6318 51.3477 67.8369 50.9033 68.0029 50.4639C68.1787 50.0146 68.2666 49.6094 68.2666 49.248C68.2666 49.1211 68.252 48.9941 68.2227 48.8672C68.2031 48.7402 68.1543 48.623 68.0762 48.5156C67.9395 48.3008 67.7441 48.1445 67.4902 48.0469C67.2363 47.9492 66.9873 47.8857 66.7432 47.8564C66.6748 47.8369 66.6064 47.832 66.5381 47.8418C66.4697 47.8418 66.4062 47.832 66.3477 47.8125C66.2305 47.8027 66.1719 47.7295 66.1719 47.5928C66.1719 47.5342 66.1865 47.4854 66.2158 47.4463C66.2549 47.3975 66.3086 47.373 66.377 47.373C66.709 47.373 67.0215 47.4072 67.3145 47.4756C67.6172 47.5439 67.8809 47.6562 68.1055 47.8125C68.3398 47.9688 68.5254 48.1738 68.6621 48.4277C68.7988 48.6816 68.8672 48.999 68.8672 49.3799ZM72.4121 53.8916C72.4121 54.1357 72.3535 54.3799 72.2363 54.624C72.1191 54.8584 71.9678 55.083 71.7822 55.2979C71.6064 55.5127 71.4111 55.708 71.1963 55.8838C70.9814 56.0596 70.7812 56.2109 70.5957 56.3379C70.3125 56.5332 70.0146 56.7139 69.7021 56.8799C69.3994 57.0459 69.0674 57.1289 68.7061 57.1289C68.6279 57.1289 68.54 57.1191 68.4424 57.0996C68.3545 57.0801 68.3105 57.0166 68.3105 56.9092C68.3105 56.7725 68.374 56.6895 68.501 56.6602C68.5303 56.6504 68.5645 56.6455 68.6035 56.6455C68.6426 56.6455 68.6816 56.6406 68.7207 56.6309C68.8281 56.6113 68.9307 56.5771 69.0283 56.5283C69.1357 56.4795 69.2432 56.4258 69.3506 56.3672C69.5166 56.2598 69.7266 56.1084 69.9805 55.9131C70.2344 55.7178 70.4834 55.5029 70.7275 55.2686C70.9717 55.0342 71.1768 54.7949 71.3428 54.5508C71.5186 54.3066 71.6064 54.0771 71.6064 53.8623C71.6064 53.7256 71.5332 53.6572 71.3867 53.6572C71.3281 53.6572 71.2695 53.667 71.2109 53.6865C71.1523 53.7061 71.0938 53.7256 71.0352 53.7451C70.5664 53.9014 70.1367 54.1406 69.7461 54.4629C69.3555 54.7754 69.0186 55.1416 68.7354 55.5615C68.4521 55.9814 68.2275 56.4307 68.0615 56.9092C67.9053 57.3877 67.8271 57.8662 67.8271 58.3447C67.8271 58.501 67.8369 58.6816 67.8564 58.8867C67.8857 59.082 67.9346 59.2676 68.0029 59.4434C68.0811 59.6191 68.1836 59.7705 68.3105 59.8975C68.4375 60.0146 68.6035 60.0732 68.8086 60.0732C68.8867 60.0732 68.96 60.0586 69.0283 60.0293C69.0967 60.0098 69.165 59.9805 69.2334 59.9414C69.4971 59.7949 69.7412 59.5996 69.9658 59.3555C70.1904 59.1016 70.3906 58.8477 70.5664 58.5938C70.6152 58.5352 70.6592 58.4717 70.6982 58.4033C70.7471 58.335 70.7959 58.2666 70.8447 58.1982C70.874 58.1494 70.9229 58.125 70.9912 58.125C71.0498 58.125 71.1035 58.1445 71.1523 58.1836C71.2109 58.2227 71.2402 58.2764 71.2402 58.3447C71.2402 58.3643 71.2305 58.3936 71.2109 58.4326C71.0938 58.6475 70.9473 58.8867 70.7715 59.1504C70.5957 59.4043 70.4004 59.6436 70.1855 59.8682C69.9707 60.0928 69.7363 60.2783 69.4824 60.4248C69.2383 60.5811 68.9795 60.6592 68.7061 60.6592C68.4033 60.6592 68.1494 60.5713 67.9443 60.3955C67.749 60.2295 67.5928 60.0244 67.4756 59.7803C67.3584 59.5264 67.2754 59.2578 67.2266 58.9746C67.1777 58.6816 67.1533 58.418 67.1533 58.1836C67.1533 57.4414 67.3096 56.7334 67.6221 56.0596C67.9346 55.376 68.3545 54.7754 68.8818 54.2578C69.0381 54.1016 69.2188 53.9453 69.4238 53.7891C69.6289 53.623 69.8438 53.4766 70.0684 53.3496C70.3027 53.2129 70.5371 53.1055 70.7715 53.0273C71.0156 52.9395 71.25 52.8955 71.4746 52.8955C71.7578 52.8955 71.9824 52.9932 72.1484 53.1885C72.3242 53.374 72.4121 53.6084 72.4121 53.8916ZM79.8828 48.6328C79.8828 48.6621 79.8779 48.6865 79.8682 48.7061C79.5557 49.458 79.2529 50.21 78.96 50.9619C78.6768 51.7041 78.4082 52.4658 78.1543 53.2471C78.2227 53.2666 78.3008 53.2959 78.3887 53.335C78.4766 53.374 78.5205 53.4326 78.5205 53.5107C78.5205 53.5791 78.501 53.6377 78.4619 53.6865C78.4229 53.7354 78.3691 53.7598 78.3008 53.7598C78.2617 53.7598 78.2129 53.75 78.1543 53.7305C78.1055 53.7109 78.0615 53.6914 78.0225 53.6719C77.876 54.1211 77.7295 54.5996 77.583 55.1074C77.4365 55.6152 77.2998 56.1279 77.1729 56.6455C77.0557 57.1631 76.958 57.6807 76.8799 58.1982C76.8018 58.7061 76.7627 59.1943 76.7627 59.6631C76.7627 59.7021 76.7627 59.7559 76.7627 59.8242C76.7627 59.8828 76.7676 59.9414 76.7773 60C76.7871 60.0586 76.8018 60.1074 76.8213 60.1465C76.8506 60.1953 76.8945 60.2197 76.9531 60.2197C77.041 60.2197 77.1631 60.1514 77.3193 60.0146C77.4854 59.8779 77.6514 59.7217 77.8174 59.5459C77.9834 59.3604 78.1396 59.1846 78.2861 59.0186C78.4424 58.8428 78.5547 58.7207 78.623 58.6523C78.6523 58.6035 78.6963 58.5791 78.7549 58.5791C78.8135 58.5791 78.8672 58.6035 78.916 58.6523C78.9648 58.7012 78.9893 58.7549 78.9893 58.8135C78.9893 58.8623 78.9795 58.8965 78.96 58.916C78.7646 59.2188 78.5498 59.502 78.3154 59.7656C78.0811 60.0293 77.832 60.2783 77.5684 60.5127C77.373 60.6885 77.1631 60.7764 76.9385 60.7764C76.7432 60.7764 76.5918 60.7227 76.4844 60.6152C76.377 60.5078 76.2939 60.376 76.2354 60.2197C76.1865 60.0732 76.1523 59.9121 76.1328 59.7363C76.123 59.5605 76.1182 59.3994 76.1182 59.2529C76.1182 59.1553 76.1182 59.0625 76.1182 58.9746C76.1279 58.877 76.1377 58.7842 76.1475 58.6963C76.0205 58.8818 75.8594 59.0918 75.6641 59.3262C75.4688 59.5508 75.2539 59.7656 75.0195 59.9707C74.7949 60.1758 74.5557 60.3467 74.3018 60.4834C74.0576 60.6299 73.8135 60.7031 73.5693 60.7031C73.3154 60.7031 73.1055 60.6445 72.9395 60.5273C72.7832 60.4102 72.6611 60.2588 72.5732 60.0732C72.4854 59.8975 72.4219 59.7021 72.3828 59.4873C72.3535 59.2725 72.3389 59.0674 72.3389 58.8721C72.3389 58.4521 72.3877 58.0273 72.4854 57.5977C72.5928 57.1582 72.7344 56.7334 72.9102 56.3232C73.0957 55.9033 73.3105 55.5078 73.5547 55.1367C73.7988 54.7559 74.0674 54.4189 74.3604 54.126C74.7021 53.7842 75.1025 53.5205 75.5615 53.335C76.0205 53.1396 76.499 53.042 76.9971 53.042C77.0654 53.042 77.1289 53.042 77.1875 53.042C77.2559 53.042 77.3242 53.0469 77.3926 53.0566C77.5 52.6953 77.6221 52.3096 77.7588 51.8994C77.9053 51.4893 78.0664 51.0791 78.2422 50.6689C78.418 50.2588 78.6084 49.8633 78.8135 49.4824C79.0283 49.1016 79.2529 48.7646 79.4873 48.4717C79.5166 48.4229 79.5654 48.3984 79.6338 48.3984C79.6924 48.3984 79.7461 48.4229 79.7949 48.4717C79.8535 48.5107 79.8828 48.5645 79.8828 48.6328ZM77.2461 53.5547H77.1289C76.5527 53.5449 76.04 53.6816 75.5908 53.9648C75.1514 54.2383 74.7656 54.5947 74.4336 55.0342C74.1113 55.4639 73.8428 55.9424 73.6279 56.4697C73.4229 56.9971 73.2715 57.5049 73.1738 57.9932C73.1152 58.2471 73.0859 58.501 73.0859 58.7549C73.0859 58.833 73.0859 58.9404 73.0859 59.0771C73.0957 59.2041 73.1152 59.3311 73.1445 59.458C73.1836 59.585 73.2324 59.6924 73.291 59.7803C73.3594 59.8682 73.4521 59.9121 73.5693 59.9121C73.7256 59.9121 73.9307 59.8193 74.1846 59.6338C74.4482 59.4385 74.7119 59.2139 74.9756 58.96C75.249 58.6963 75.5078 58.4375 75.752 58.1836C75.9961 57.9297 76.1768 57.7441 76.2939 57.627C76.3135 57.6074 76.333 57.5977 76.3525 57.5977C76.4014 56.9141 76.5137 56.2354 76.6895 55.5615C76.875 54.8779 77.0605 54.209 77.2461 53.5547ZM86.5332 48.6328C86.5332 48.6621 86.5283 48.6865 86.5186 48.7061C86.2061 49.458 85.9033 50.21 85.6104 50.9619C85.3271 51.7041 85.0586 52.4658 84.8047 53.2471C84.873 53.2666 84.9512 53.2959 85.0391 53.335C85.127 53.374 85.1709 53.4326 85.1709 53.5107C85.1709 53.5791 85.1514 53.6377 85.1123 53.6865C85.0732 53.7354 85.0195 53.7598 84.9512 53.7598C84.9121 53.7598 84.8633 53.75 84.8047 53.7305C84.7559 53.7109 84.7119 53.6914 84.6729 53.6719C84.5264 54.1211 84.3799 54.5996 84.2334 55.1074C84.0869 55.6152 83.9502 56.1279 83.8232 56.6455C83.7061 57.1631 83.6084 57.6807 83.5303 58.1982C83.4521 58.7061 83.4131 59.1943 83.4131 59.6631C83.4131 59.7021 83.4131 59.7559 83.4131 59.8242C83.4131 59.8828 83.418 59.9414 83.4277 60C83.4375 60.0586 83.4521 60.1074 83.4717 60.1465C83.501 60.1953 83.5449 60.2197 83.6035 60.2197C83.6914 60.2197 83.8135 60.1514 83.9697 60.0146C84.1357 59.8779 84.3018 59.7217 84.4678 59.5459C84.6338 59.3604 84.79 59.1846 84.9365 59.0186C85.0928 58.8428 85.2051 58.7207 85.2734 58.6523C85.3027 58.6035 85.3467 58.5791 85.4053 58.5791C85.4639 58.5791 85.5176 58.6035 85.5664 58.6523C85.6152 58.7012 85.6396 58.7549 85.6396 58.8135C85.6396 58.8623 85.6299 58.8965 85.6104 58.916C85.415 59.2188 85.2002 59.502 84.9658 59.7656C84.7314 60.0293 84.4824 60.2783 84.2188 60.5127C84.0234 60.6885 83.8135 60.7764 83.5889 60.7764C83.3936 60.7764 83.2422 60.7227 83.1348 60.6152C83.0273 60.5078 82.9443 60.376 82.8857 60.2197C82.8369 60.0732 82.8027 59.9121 82.7832 59.7363C82.7734 59.5605 82.7686 59.3994 82.7686 59.2529C82.7686 59.1553 82.7686 59.0625 82.7686 58.9746C82.7783 58.877 82.7881 58.7842 82.7979 58.6963C82.6709 58.8818 82.5098 59.0918 82.3145 59.3262C82.1191 59.5508 81.9043 59.7656 81.6699 59.9707C81.4453 60.1758 81.2061 60.3467 80.9521 60.4834C80.708 60.6299 80.4639 60.7031 80.2197 60.7031C79.9658 60.7031 79.7559 60.6445 79.5898 60.5273C79.4336 60.4102 79.3115 60.2588 79.2236 60.0732C79.1357 59.8975 79.0723 59.7021 79.0332 59.4873C79.0039 59.2725 78.9893 59.0674 78.9893 58.8721C78.9893 58.4521 79.0381 58.0273 79.1357 57.5977C79.2432 57.1582 79.3848 56.7334 79.5605 56.3232C79.7461 55.9033 79.9609 55.5078 80.2051 55.1367C80.4492 54.7559 80.7178 54.4189 81.0107 54.126C81.3525 53.7842 81.7529 53.5205 82.2119 53.335C82.6709 53.1396 83.1494 53.042 83.6475 53.042C83.7158 53.042 83.7793 53.042 83.8379 53.042C83.9062 53.042 83.9746 53.0469 84.043 53.0566C84.1504 52.6953 84.2725 52.3096 84.4092 51.8994C84.5557 51.4893 84.7168 51.0791 84.8926 50.6689C85.0684 50.2588 85.2588 49.8633 85.4639 49.4824C85.6787 49.1016 85.9033 48.7646 86.1377 48.4717C86.167 48.4229 86.2158 48.3984 86.2842 48.3984C86.3428 48.3984 86.3965 48.4229 86.4453 48.4717C86.5039 48.5107 86.5332 48.5645 86.5332 48.6328ZM83.8965 53.5547H83.7793C83.2031 53.5449 82.6904 53.6816 82.2412 53.9648C81.8018 54.2383 81.416 54.5947 81.084 55.0342C80.7617 55.4639 80.4932 55.9424 80.2783 56.4697C80.0732 56.9971 79.9219 57.5049 79.8242 57.9932C79.7656 58.2471 79.7363 58.501 79.7363 58.7549C79.7363 58.833 79.7363 58.9404 79.7363 59.0771C79.7461 59.2041 79.7656 59.3311 79.7949 59.458C79.834 59.585 79.8828 59.6924 79.9414 59.7803C80.0098 59.8682 80.1025 59.9121 80.2197 59.9121C80.376 59.9121 80.5811 59.8193 80.835 59.6338C81.0986 59.4385 81.3623 59.2139 81.626 58.96C81.8994 58.6963 82.1582 58.4375 82.4023 58.1836C82.6465 57.9297 82.8271 57.7441 82.9443 57.627C82.9639 57.6074 82.9834 57.5977 83.0029 57.5977C83.0518 56.9141 83.1641 56.2354 83.3398 55.5615C83.5254 54.8779 83.7109 54.209 83.8965 53.5547ZM89.5215 49.0869C89.5215 49.1455 89.4971 49.2139 89.4482 49.292L89.4336 49.3359C89.4531 49.3945 89.4629 49.4385 89.4629 49.4678C89.3945 49.5166 89.3457 49.5703 89.3164 49.6289C89.2871 49.6777 89.2188 49.7021 89.1113 49.7021C89.0234 49.7021 88.9355 49.668 88.8477 49.5996C88.7598 49.5215 88.7158 49.4287 88.7158 49.3213C88.7158 49.1455 88.7305 49.0039 88.7598 48.8965C88.7988 48.7793 88.9307 48.7207 89.1553 48.7207C89.2432 48.7207 89.3262 48.7598 89.4043 48.8379C89.4824 48.916 89.5215 48.999 89.5215 49.0869ZM89.4189 58.4326C89.4189 58.4814 89.4043 58.5205 89.375 58.5498C89.1895 58.7744 89.0088 58.999 88.833 59.2236C88.667 59.4385 88.4863 59.6387 88.291 59.8242C88.1055 60.0098 87.8955 60.166 87.6611 60.293C87.4268 60.4297 87.1582 60.5273 86.8555 60.5859C86.5918 60.4688 86.4111 60.3125 86.3135 60.1172C86.2158 59.9316 86.167 59.7021 86.167 59.4287V58.9014C86.167 58.6475 86.1914 58.3838 86.2402 58.1104C86.2988 57.8369 86.3574 57.5732 86.416 57.3193C86.5039 56.9385 86.6016 56.5283 86.709 56.0889C86.8262 55.6494 86.958 55.2148 87.1045 54.7852C87.2607 54.3457 87.4365 53.9258 87.6318 53.5254C87.8271 53.1152 88.0469 52.7588 88.291 52.4561C88.3398 52.4072 88.3887 52.3828 88.4375 52.3828C88.4961 52.3828 88.5547 52.4072 88.6133 52.4561C88.6719 52.4951 88.7012 52.5488 88.7012 52.6172V52.6465C88.5352 53.1641 88.3447 53.7109 88.1299 54.2871C87.9248 54.8535 87.7246 55.4346 87.5293 56.0303C87.3438 56.6162 87.1826 57.2021 87.0459 57.7881C86.9189 58.374 86.8555 58.9404 86.8555 59.4873C86.8555 59.5459 86.8555 59.6289 86.8555 59.7363C86.8652 59.8438 86.8994 59.9121 86.958 59.9414C87.1729 59.9023 87.3975 59.79 87.6318 59.6045C87.876 59.4189 88.1006 59.2236 88.3057 59.0186C88.5205 58.8135 88.7061 58.6279 88.8623 58.4619C89.0186 58.2959 89.126 58.2129 89.1846 58.2129C89.2334 58.2129 89.2822 58.2373 89.3311 58.2861C89.3896 58.335 89.4189 58.3838 89.4189 58.4326ZM96.4502 59.0186C96.4502 59.0771 96.4258 59.1211 96.377 59.1504C96.2695 59.2383 96.1426 59.3359 95.9961 59.4434C95.8496 59.5508 95.6934 59.6582 95.5273 59.7656C95.3613 59.8633 95.1953 59.9561 95.0293 60.0439C94.873 60.1318 94.7314 60.2002 94.6045 60.249C94.3799 60.3467 94.1699 60.3955 93.9746 60.3955C93.6816 60.3955 93.4668 60.2881 93.3301 60.0732C93.2031 59.8682 93.1396 59.6387 93.1396 59.3848C93.1396 59.082 93.1885 58.7402 93.2861 58.3594C93.3838 57.9688 93.501 57.5732 93.6377 57.1729C93.7744 56.7725 93.916 56.3818 94.0625 56.001C94.2188 55.6104 94.3506 55.2686 94.458 54.9756C94.5654 54.6924 94.6631 54.4092 94.751 54.126C94.8389 53.833 94.8975 53.5303 94.9268 53.2178C94.751 53.2373 94.5117 53.335 94.209 53.5107C93.9062 53.6865 93.5889 53.8916 93.2568 54.126C92.9346 54.3506 92.627 54.5752 92.334 54.7998C92.041 55.0244 91.8115 55.1953 91.6455 55.3125L91.1182 56.3672C90.8838 56.8262 90.6592 57.2852 90.4443 57.7441C90.2393 58.1934 90.0391 58.6523 89.8438 59.1211C89.7559 59.3457 89.6729 59.5703 89.5947 59.7949C89.5166 60.0195 89.4287 60.2441 89.3311 60.4688C89.3018 60.5469 89.248 60.5859 89.1699 60.5859C89.1309 60.5859 89.082 60.5615 89.0234 60.5127C88.9551 60.4639 88.9209 60.4199 88.9209 60.3809C88.9209 60.3711 88.9307 60.3369 88.9502 60.2783C88.96 60.2295 88.9746 60.1709 88.9941 60.1025C89.0039 60.0342 89.0186 59.9707 89.0381 59.9121C89.0479 59.8535 89.0527 59.8145 89.0527 59.7949C89.2188 59.1504 89.4189 58.5156 89.6533 57.8906C89.8975 57.2656 90.166 56.6504 90.459 56.0449C90.5957 55.7617 90.7275 55.4785 90.8545 55.1953C90.9814 54.9023 91.1133 54.6143 91.25 54.3311C91.3086 54.2236 91.377 54.0918 91.4551 53.9355C91.543 53.7793 91.6309 53.623 91.7188 53.4668C91.8164 53.3008 91.9141 53.1494 92.0117 53.0127C92.1094 52.8662 92.2021 52.7539 92.29 52.6758C92.3291 52.6367 92.373 52.6172 92.4219 52.6172C92.4609 52.6172 92.5146 52.6465 92.583 52.7051C92.6514 52.7539 92.6855 52.8027 92.6855 52.8516C92.6855 52.8809 92.666 52.9492 92.627 53.0566C92.5977 53.1641 92.5586 53.2812 92.5098 53.4082C92.4609 53.5254 92.4121 53.6426 92.3633 53.7598C92.3242 53.8672 92.2998 53.9404 92.29 53.9795C92.4561 53.8232 92.6465 53.6523 92.8613 53.4668C93.0859 53.2812 93.3203 53.1104 93.5645 52.9541C93.8184 52.7979 94.0771 52.6709 94.3408 52.5732C94.6045 52.4658 94.8535 52.4121 95.0879 52.4121C95.2246 52.4121 95.3516 52.4756 95.4688 52.6025C95.5957 52.7197 95.6689 52.8467 95.6885 52.9834C95.708 53.0811 95.7178 53.1543 95.7178 53.2031C95.7178 53.3691 95.6836 53.5742 95.6152 53.8184C95.5566 54.0527 95.498 54.2529 95.4395 54.4189C95.3418 54.7021 95.2002 55.0781 95.0146 55.5469C94.8291 56.0059 94.6436 56.4795 94.458 56.9678C94.2725 57.4561 94.1113 57.9248 93.9746 58.374C93.8379 58.8232 93.7695 59.1748 93.7695 59.4287C93.7695 59.5361 93.7793 59.6289 93.7988 59.707C93.8184 59.7754 93.8916 59.8096 94.0186 59.8096C94.1943 59.8096 94.3994 59.7559 94.6338 59.6484C94.8779 59.541 95.1123 59.4238 95.3369 59.2969C95.5615 59.1602 95.7568 59.0381 95.9229 58.9307C96.0889 58.8232 96.1914 58.7695 96.2305 58.7695C96.2891 58.7695 96.3379 58.7988 96.377 58.8574C96.4258 58.9062 96.4502 58.96 96.4502 59.0186ZM102.192 53.3203C102.192 53.3398 102.183 53.3691 102.163 53.4082C102.144 53.5742 102.124 53.7354 102.104 53.8916C102.095 54.0381 102.075 54.1895 102.046 54.3457C101.997 54.668 101.943 54.9854 101.885 55.2979C101.826 55.6104 101.763 55.9229 101.694 56.2354C101.45 57.3584 101.147 58.4619 100.786 59.5459C100.435 60.6299 100.044 61.7041 99.6143 62.7686C99.458 63.1494 99.292 63.5303 99.1162 63.9111C98.9502 64.3018 98.7598 64.6777 98.5449 65.0391C98.3398 65.4102 98.1104 65.7617 97.8564 66.0938C97.6025 66.4258 97.3145 66.7285 96.9922 67.002C96.543 67.4023 96.0254 67.6025 95.4395 67.6025C95.127 67.6025 94.8242 67.5488 94.5312 67.4414C94.2383 67.334 93.9648 67.1875 93.7109 67.002C93.457 66.8262 93.2324 66.6113 93.0371 66.3574C92.832 66.1133 92.6758 65.8496 92.5684 65.5664C92.5586 65.5566 92.5537 65.5322 92.5537 65.4932C92.5537 65.4346 92.5781 65.3857 92.627 65.3467C92.6758 65.3076 92.7295 65.2881 92.7881 65.2881C92.8564 65.2881 92.915 65.3223 92.9639 65.3906C93.0127 65.4785 93.0615 65.5664 93.1104 65.6543C93.1494 65.7422 93.2031 65.8252 93.2715 65.9033C93.5254 66.2158 93.8379 66.4746 94.209 66.6797C94.5703 66.8945 94.9512 67.002 95.3516 67.002C95.8105 67.002 96.2158 66.8408 96.5674 66.5186C96.8408 66.2744 97.0996 65.9766 97.3438 65.625C97.5879 65.2734 97.8174 64.8926 98.0322 64.4824C98.2568 64.0723 98.4619 63.6426 98.6475 63.1934C98.8428 62.7441 99.0186 62.2949 99.1748 61.8457C99.3408 61.4062 99.4922 60.9766 99.6289 60.5566C99.7656 60.1367 99.8926 59.751 100.01 59.3994C99.6582 59.7412 99.2773 60.0098 98.8672 60.2051C98.457 60.4004 98.0029 60.498 97.5049 60.498C97.4951 60.498 97.4805 60.498 97.4609 60.498C97.4414 60.498 97.4268 60.4932 97.417 60.4834C97.1924 60.4346 97.002 60.3467 96.8457 60.2197C96.6992 60.0928 96.5771 59.9463 96.4795 59.7803C96.3916 59.6045 96.3281 59.4189 96.2891 59.2236C96.25 59.0186 96.2305 58.8135 96.2305 58.6084C96.2305 58.0225 96.3135 57.4414 96.4795 56.8652C96.6553 56.2891 96.9141 55.7568 97.2559 55.2686C97.4707 54.9756 97.7148 54.6924 97.9883 54.4189C98.2617 54.1357 98.5596 53.8916 98.8818 53.6865C99.2041 53.4717 99.5459 53.3008 99.9072 53.1738C100.269 53.0371 100.64 52.9688 101.021 52.9688C101.079 52.9688 101.172 52.9736 101.299 52.9834C101.426 52.9932 101.553 53.0127 101.68 53.042C101.816 53.0615 101.934 53.0957 102.031 53.1445C102.139 53.1934 102.192 53.252 102.192 53.3203ZM101.68 53.4961C101.533 53.457 101.367 53.4375 101.182 53.4375C100.84 53.4375 100.503 53.501 100.171 53.6279C99.8389 53.7549 99.5264 53.9258 99.2334 54.1406C98.9404 54.3457 98.6719 54.5801 98.4277 54.8438C98.1836 55.1074 97.9688 55.3711 97.7832 55.6348C97.5098 56.0449 97.2998 56.499 97.1533 56.9971C97.0166 57.4951 96.9482 57.9932 96.9482 58.4912C96.9482 58.5986 96.9531 58.7256 96.9629 58.8721C96.9824 59.0186 97.0117 59.1602 97.0508 59.2969C97.0996 59.4238 97.168 59.5361 97.2559 59.6338C97.3535 59.7217 97.4756 59.7656 97.6221 59.7656C97.9248 59.7656 98.2178 59.6924 98.501 59.5459C98.7939 59.3994 99.0625 59.2139 99.3066 58.9893C99.5508 58.7646 99.7656 58.5156 99.9512 58.2422C100.146 57.959 100.303 57.6904 100.42 57.4365C100.713 56.8018 100.947 56.1523 101.123 55.4883C101.309 54.8242 101.494 54.1602 101.68 53.4961Z" fill="black"/>
<path d="M58.3165 8.89559C58.0475 10.1548 55.6747 13.3881 54.5219 14.8474L55.1944 8.89559C53.6957 6.10168 54.9222 3.37007 55.7227 2.3535C57.3366 0.110505 60.1097 -0.122321 61.2945 0.0416413C64.676 0.199045 67.1224 2.73062 67.923 3.97673C69.7674 7.00674 69.6842 10.4532 69.412 11.7977C68.9893 16.1263 66.2899 20.7828 64.993 22.57C63.7634 24.5769 60.606 27.6036 59.1811 28.8661C57.0676 30.755 55.6427 32.834 55.1944 33.6374C54.8101 35.9591 56.2831 35.2279 57.0676 34.572L62.1591 31.0304C65.7711 28.3939 69.6521 26.915 71.1411 26.5051C74.4458 25.2459 78.8904 25.3246 80.6996 25.5213C84.3501 26.0329 86.4155 26.751 86.9919 27.0462C88.3368 27.4397 90.4022 27.4725 91.2668 27.4397C94.0719 27.4397 97.591 25.6033 99 24.6851C95.9259 34.7983 87.8565 42.4422 84.206 45H51.0155C47.8262 44.5671 45.9401 42.3602 45.3957 41.3109C44.3582 37.6119 45.6039 34.654 46.3564 33.6374C47.0096 32.0634 50.4071 28.817 52.0242 27.3905C52.8696 26.7609 55.9309 23.5538 57.3558 22.0289C58.8929 20.2975 60.622 17.438 61.2945 16.2247C62.9084 14.0997 63.2798 11.3714 63.2638 10.2729C63.4944 8.38402 62.2391 7.58389 61.5827 7.41993C59.6229 6.75097 58.5886 8.12497 58.3165 8.89559Z" fill="#FD92B9"/>
<path d="M46.4028 3.77006C47.8806 2.37541 49.1296 3.18895 49.5695 3.77006L49.5695 9C48.4435 8.80076 47.0478 7.20134 46.4907 6.42654C45.6463 4.96547 46.0802 4.04678 46.4028 3.77006Z" fill="#F30A0A"/>
<path d="M52.5972 3.77006C51.1194 2.37541 49.8704 3.18895 49.4305 3.77006L49.4305 9C50.5565 8.80076 51.9522 7.20134 52.5093 6.42654C53.3537 4.96547 52.9198 4.04677 52.5972 3.77006Z" fill="#F30A0A"/>
<path fill-rule="evenodd" clip-rule="evenodd" d="M18.9235 57.5609C18.6623 57.152 18.287 56.7833 17.7657 56.6146C16.6284 56.2463 15.7122 56.6146 15.3963 56.8447C15.0014 57.0749 14.259 57.8115 14.4485 58.9163C14.4485 59.1465 14.6381 59.883 15.3963 60.9879C15.7912 61.4482 16.7232 62.415 17.2918 62.5991H14.4485V63.75H18.4226H19.4243H23.3984V62.5991H20.5551C21.1237 62.415 22.0557 61.4482 22.4506 60.9879C23.2088 59.883 23.3984 59.1465 23.3984 58.9163C23.5879 57.8115 22.8455 57.0749 22.4506 56.8447C22.1347 56.6146 21.2185 56.2463 20.0812 56.6146C19.5599 56.7833 19.1847 57.152 18.9235 57.5609ZM18.4226 58.9163H18.2396C18.2396 58.3639 17.7657 57.9189 17.5288 57.7654C16.581 57.3971 16.1861 57.612 16.1071 57.7654C15.728 58.1337 15.7912 58.6861 15.8702 58.9163C15.8702 59.3414 16.4781 59.9738 16.9384 60.4525C17.0762 60.5959 17.2008 60.7255 17.2918 60.8316L18.9235 62.184L20.5551 60.8316C20.6461 60.7255 20.7707 60.5959 20.9085 60.4525C21.3688 59.9738 21.9767 59.3414 21.9767 58.9163C22.0557 58.6861 22.1189 58.1337 21.7398 57.7654C21.6608 57.612 21.2659 57.3971 20.3181 57.7654C20.0812 57.9189 19.6073 58.3639 19.6073 58.9163H19.4243H18.4226Z" fill="#FD92B9"/>
<path d="M18.1873 46.65C17.8573 48.12 17.2773 49.56 16.5373 50.49C16.7073 50.6 17.0073 50.84 17.1373 50.97C17.9073 49.95 18.5373 48.41 18.9273 46.81L18.1873 46.65ZM18.0173 50.89C17.7373 52.09 17.2573 53.28 16.6373 54.05C16.8173 54.14 17.1373 54.34 17.2873 54.46C17.8973 53.62 18.4373 52.35 18.7473 51.04L18.0173 50.89ZM18.0973 48.53L17.8073 49.23H22.5973V48.53H18.0973ZM19.6473 48.82V54.89C19.6473 55.02 19.6073 55.06 19.4773 55.06C19.3373 55.06 18.9073 55.07 18.4373 55.05C18.5473 55.27 18.6573 55.6 18.7073 55.81C19.3273 55.81 19.7573 55.79 20.0273 55.66C20.3073 55.54 20.3973 55.32 20.3973 54.89V48.82H19.6473ZM21.1173 51.04C21.6673 52.09 22.1673 53.5 22.3273 54.42L23.0373 54.18C22.8673 53.25 22.3673 51.87 21.7873 50.82L21.1173 51.04ZM22.3773 48.53V48.64C22.2773 49.3 22.1473 50.14 22.0373 50.64L22.6873 50.76C22.8173 50.22 22.9873 49.36 23.1273 48.62L22.6073 48.51L22.4773 48.53H22.3773ZM16.1773 46.64C15.6173 48.16 14.6773 49.66 13.6873 50.63C13.8273 50.8 14.0373 51.2 14.1173 51.37C15.1973 50.25 16.2273 48.56 16.8873 46.86L16.1773 46.64ZM15.1373 49.22V55.79H15.8573V48.52L15.8373 48.51L15.1373 49.22Z" fill="#FD92B9"/>
<path d="M2.52 56.441V57.233H10.692V56.441H2.52ZM0.972 52.109V52.937H8.82V52.109H0.972ZM4.356 54.269V55.073H9.852V54.269H4.356ZM10.308 56.441V56.585C10.116 58.973 9.888 59.921 9.612 60.197C9.504 60.293 9.384 60.317 9.156 60.317C8.928 60.317 8.352 60.317 7.752 60.245C7.896 60.485 7.992 60.833 8.004 61.085C8.628 61.109 9.228 61.121 9.528 61.097C9.888 61.073 10.116 60.989 10.344 60.761C10.728 60.365 10.956 59.369 11.172 56.837C11.196 56.705 11.208 56.441 11.208 56.441H10.308ZM7.644 57.881C8.004 58.385 8.376 59.081 8.532 59.513L9.192 59.237C9.036 58.805 8.664 58.133 8.28 57.641L7.644 57.881ZM2.46 50.405C2.928 50.909 3.432 51.617 3.636 52.085L4.476 51.701C4.236 51.245 3.708 50.561 3.24 50.081L2.46 50.405ZM4.092 58.181C4.296 58.961 4.428 59.945 4.404 60.593L5.196 60.485C5.196 59.837 5.064 58.841 4.824 58.085L4.092 58.181ZM5.856 58.073C6.156 58.733 6.444 59.609 6.528 60.185L7.272 59.981C7.176 59.417 6.876 58.565 6.564 57.905L5.856 58.073ZM2.556 57.905C2.316 58.829 1.86 59.897 1.188 60.533L1.884 61.025C2.616 60.293 3.036 59.153 3.312 58.157L2.556 57.905ZM6.096 50.045C5.184 53.153 3.336 56.225 0.36 57.917C0.516 58.109 0.744 58.469 0.852 58.685C4.032 56.801 5.916 53.633 7.008 50.273L6.096 50.045ZM8.616 52.109C8.484 52.877 8.28 53.837 8.112 54.473L8.904 54.581C9.084 53.933 9.3 52.937 9.468 52.109H8.616ZM9.516 54.269C9.396 55.037 9.192 56.009 9.012 56.657L9.828 56.753C9.996 56.105 10.2 55.097 10.368 54.269H9.516ZM28.4289 53.753V60.701H29.3169V53.753H28.4289ZM31.3089 53.753V60.701H32.1969V53.753H31.3089ZM29.7609 51.089C29.6409 51.869 29.3769 52.997 29.1369 53.729L30.0249 53.849C30.2889 53.165 30.6009 52.121 30.8649 51.185L29.7609 51.089ZM25.6089 53.321V61.097H26.5329V54.161H34.6449V53.321H25.6089ZM34.2369 53.321V59.957C34.2369 60.125 34.1889 60.173 33.9969 60.185C33.8169 60.197 33.2049 60.209 32.5329 60.185C32.6649 60.413 32.7969 60.785 32.8449 61.025C33.7089 61.025 34.3089 61.013 34.6809 60.869C35.0409 60.725 35.1369 60.473 35.1369 59.957V53.321H34.2369ZM24.9969 50.681V51.593H35.7609V50.681H24.9969ZM40.6929 53.717V54.581H47.6889V53.717H40.6929ZM44.1489 56.585V57.437H48.1929V56.585H44.1489ZM43.6689 54.161V60.113L44.6049 60.233V54.161H43.6689ZM40.8249 55.613C40.5609 57.785 39.9129 59.501 38.5689 60.545C38.7849 60.677 39.1689 60.989 39.3129 61.145C40.6689 59.969 41.4249 58.133 41.7609 55.709L40.8249 55.613ZM41.3889 57.161L40.6569 57.437C41.6889 60.365 43.6449 60.929 46.5009 60.929H49.3209C49.3569 60.665 49.5129 60.233 49.6569 60.017C49.0689 60.029 46.9929 60.029 46.5489 60.029C44.1129 60.029 42.2409 59.609 41.3889 57.161ZM43.6569 50.057V52.001H44.6049V50.057H43.6569ZM39.1449 51.425V54.041H40.0329V52.289H48.2529V54.041H49.1769V51.425H39.1449Z" fill="#FD92B9"/>
</svg>
